<svg version="1.1" id="Ebene_1" xmlns="http://www.w3.org/2000/svg" xmlns:xlink="http://www.w3.org/1999/xlink" x="0px" y="0px"
	 viewBox="0 0 56 56" enable-background="new 0 0 56 56" xml:space="preserve" width="56" height="56">
<path fill="#0060A4" d="M40.1,13H16.3c-3.7,0-7,2.8-7,6.5v9.3c0,3.7,3.3,7,7,7H21v10.7l10.7-10.7h8.4c3.7,0,7-3.3,7-7v-9.3
	C47.1,15.8,43.9,13,40.1,13z M43.6,28.8c0,1.8-1.7,3.5-3.5,3.5h-9.9l-5.8,5.8v-5.8h-8.2c-1.8,0-3.5-1.7-3.5-3.5v-9.3
	c0-1.7,1.6-3,3.5-3h23.8c1.7,0,3.5,1.2,3.5,3V28.8z"/>
<rect fill="none" width="56" height="56"/>
</svg>
