<svg version="1.1" id="Ebene_1" xmlns="http://www.w3.org/2000/svg" xmlns:xlink="http://www.w3.org/1999/xlink" x="0px" y="0px"
	 viewBox="0 0 56 56" enable-background="new 0 0 56 56" xml:space="preserve" width="56" height="56">
<g>
	<g>
		<path fill="#0060A4" d="M38.7,14v3.3h-4.7V14H21.5v3.3h-4.7V14H9.3v30.3h37.3V14H38.7z M17.7,41.5h-5.6v-5.1h5.6V41.5z M17.7,33.6
			h-5.6V28h5.6V33.6z M17.7,25.2h-5.6v-5.6h5.6V25.2z M26.6,41.5h-6.1v-5.1h6.1V41.5z M26.6,33.6h-6.1V28h6.1V33.6z M26.6,25.2h-6.1
			v-5.6h6.1V25.2z M35,41.5h-5.6v-5.1H35V41.5z M35,33.6h-5.6V28H35V33.6z M35,25.2h-5.6v-5.6H35V25.2z M43.9,41.5h-6.1v-5.1h6.1
			C43.9,36.4,43.9,41.5,43.9,41.5z M43.9,33.6h-6.1V28h6.1C43.9,28,43.9,33.6,43.9,33.6z M43.9,25.2h-6.1v-5.6h6.1
			C43.9,19.6,43.9,25.2,43.9,25.2z"/>
		<path fill="#0060A4" d="M44.4,42h-7.1v-6.1h7.1V42z M38.3,41h5.1v-4.1h-5.1V41z M35.5,42h-6.6v-6.1h6.6V42z M29.9,41h4.6v-4.1
			h-4.6V41z M27.1,42H20v-6.1h7.1V42z M21,41h5.1v-4.1H21V41z M18.2,42h-6.6v-6.1h6.6V42z M12.6,41h4.6v-4.1h-4.6V41z M44.4,34.1
			h-7.1v-6.6h7.1V34.1z M38.3,33.1h5.1v-4.6h-5.1V33.1z M35.5,34.1h-6.6v-6.6h6.6V34.1z M29.9,33.1h4.6v-4.6h-4.6V33.1z M27.1,34.1
			H20v-6.6h7.1V34.1z M21,33.1h5.1v-4.6H21V33.1z M18.2,34.1h-6.6v-6.6h6.6V34.1z M12.6,33.1h4.6v-4.6h-4.6V33.1z M44.4,25.7h-7.1
			v-6.6h7.1V25.7z M38.3,24.7h5.1v-4.6h-5.1V24.7z M35.5,25.7h-6.6v-6.6h6.6V25.7z M29.9,24.7h4.6v-4.6h-4.6V24.7z M27.1,25.7H20
			v-6.6h7.1V25.7z M21,24.7h5.1v-4.6H21V24.7z M18.2,25.7h-6.6v-6.6h6.6V25.7z M12.6,24.7h4.6v-4.6h-4.6V24.7z"/>
	</g>
	<rect x="18" y="10.6" fill="#0060A4" width="2.3" height="5.6"/>
	<rect x="35.2" y="10.6" fill="#0060A4" width="2.3" height="5.6"/>
</g>
<rect fill="none" width="56" height="56"/>
</svg>
