<svg xmlns="http://www.w3.org/2000/svg" xmlns:xlink="http://www.w3.org/1999/xlink"
	 viewBox="0 0 16 16" xml:space="preserve" width="16" height="16">
	<rect x="7" y="12" style="fill:#0060A4;" width="2" height="2"/>
	<path style="fill:#0060A4;" d="M11.7,3.9c-0.2-0.4-0.5-0.8-0.8-1.1s-0.7-0.5-1.2-0.7C9.2,2.1,8.7,2,8.2,2C7.6,2,7,2.1,6.5,2.3
		s-1,0.5-1.3,0.8C4.8,3.5,4.5,3.9,4.3,4.4C4.1,4.9,4,5.5,4,6.1h2c0-0.8,0.2-1.4,0.5-1.8c0.3-0.5,0.9-0.7,1.6-0.7
		c0.2,0,0.3,0,0.5,0.1S9,3.9,9.2,4s0.3,0.3,0.4,0.6s0.2,0.5,0.2,0.9c0,0.3,0,0.5-0.1,0.7C9.6,6.4,9.5,6.6,9.4,6.7
		C9.3,6.9,9.1,7,8.9,7.2C8.8,7.3,8.6,7.4,8.4,7.6C8.2,7.8,8,8,7.8,8.2C7.6,8.4,7.5,8.6,7.4,8.9C7.3,9.1,7.2,9.4,7.1,9.8
		C7.1,10.1,7,10.5,7,11h1.9c0-0.4,0-0.7,0.1-1s0.2-0.5,0.3-0.7C9.5,9,9.7,8.9,9.9,8.7s0.4-0.3,0.6-0.5C10.6,8,10.8,7.9,11,7.7
		c0.2-0.2,0.4-0.3,0.5-0.6c0.1-0.2,0.3-0.5,0.3-0.7C12,6.1,12,5.8,12,5.4C12,4.8,11.9,4.4,11.7,3.9z"/>
</svg>
