<svg version="1.1" id="Ebene_1" xmlns="http://www.w3.org/2000/svg" xmlns:xlink="http://www.w3.org/1999/xlink" x="0px" y="0px"
	 viewBox="0 0 56 56" enable-background="new 0 0 56 56" xml:space="preserve" width="56" height="56">
<g>
	<path fill="#E7E7E7" d="M51.9,56H4.1C1.9,56,0,54.1,0,51.9V4.1C0,1.9,1.9,0,4.1,0h47.6C54.1,0,56,1.9,56,4.1v47.6
		C56,54.1,54.1,56,51.9,56z"/>
	<path fill="#CCCCCC" d="M51.9,2.2c1.1,0,1.9,0.9,1.9,1.9v47.6c0,1.1-0.9,1.9-1.9,1.9H4.1C3,53.8,2.2,53,2.2,51.9V4.1
		C2.2,3,3,2.2,4.1,2.2H51.9 M51.9,0H4.1C1.9,0,0,1.9,0,4.1v47.6C0,54.1,1.9,56,4.1,56h47.6c2.4,0,4.1-1.9,4.1-4.1V4.1
		C56,1.9,54.1,0,51.9,0L51.9,0z"/>
</g>
<g>
	<path fill="#8F8F8F" d="M37.8,53.6V33.8h6.7l1-7.7h-7.7v-4.9c0-2.2,0.6-3.8,3.8-3.8l4.1,0v-6.9c-0.7-0.1-3.1-0.3-6-0.3
		c-5.9,0-9.9,3.6-9.9,10.2v5.7h-6.7v7.7h6.7v19.8H37.8z"/>
</g>
</svg>
