<svg version="1.1" id="Ebene_1" xmlns="http://www.w3.org/2000/svg" xmlns:xlink="http://www.w3.org/1999/xlink" x="0px" y="0px"
	 viewBox="0 0 56 56" enable-background="new 0 0 56 56" xml:space="preserve" width="56" height="56">
<g>
	<path fill="#E7E7E7" d="M51.9,56H4.1C1.9,56,0,54.1,0,51.9V4.1C0,1.9,1.9,0,4.1,0h47.6C54.1,0,56,1.9,56,4.1v47.6
		C56,54.1,54.1,56,51.9,56z"/>
	<path fill="#CCCCCC" d="M51.9,2.2c1.1,0,1.9,0.9,1.9,1.9v47.6c0,1.1-0.9,1.9-1.9,1.9H4.1C3,53.8,2.2,53,2.2,51.9V4.1
		C2.2,3,3,2.2,4.1,2.2H51.9 M51.9,0H4.1C1.9,0,0,1.9,0,4.1v47.6C0,54.1,1.9,56,4.1,56h47.6c2.4,0,4.1-1.9,4.1-4.1V4.1
		C56,1.9,54.1,0,51.9,0L51.9,0z"/>
</g>
<path fill="#8F8F8F" d="M13,27.2C13.2,19,20.8,11.7,29,12c3.9-0.2,7.7,1.5,10.7,3.9c-1.3,1.5-2.6,2.9-4.1,4.2
	c-3.6-2.5-8.8-3.2-12.4-0.3c-5.2,3.6-5.4,12.1-0.4,16c4.9,4.4,14.1,2.2,15.4-4.5c-3,0-6.1,0-9.2-0.1c0-1.8,0-3.6,0-5.5
	c5.1,0,10.2,0,15.3,0c0.3,4.3-0.3,8.8-2.9,12.4c-4,5.6-12,7.2-18.2,4.8C16.9,40.5,12.5,33.9,13,27.2z"/>
</svg>
