<?xml version="1.0" encoding="utf-8"?>
<!-- Generator: Adobe Illustrator 18.0.0, SVG Export Plug-In . SVG Version: 6.00 Build 0)  -->
<!DOCTYPE svg PUBLIC "-//W3C//DTD SVG 1.1//EN" "http://www.w3.org/Graphics/SVG/1.1/DTD/svg11.dtd">
<svg version="1.1" id="Ebene_1" xmlns="http://www.w3.org/2000/svg" xmlns:xlink="http://www.w3.org/1999/xlink" x="0px" y="0px"
	 viewBox="0 0 56 56" enable-background="new 0 0 56 56" xml:space="preserve" width="56" height="56">
<g>
	<path fill="#E7E7E7" d="M51.9,56H4.1C1.9,56,0,54.1,0,51.9V4.1C0,1.9,1.9,0,4.1,0h47.6C54.1,0,56,1.9,56,4.1v47.6
		C56,54.1,54.1,56,51.9,56z"/>
	<path fill="#CCCCCC" d="M51.9,2.2c1.1,0,1.9,0.9,1.9,1.9v47.6c0,1.1-0.9,1.9-1.9,1.9H4.1C3,53.8,2.2,53,2.2,51.9V4.1
		C2.2,3,3,2.2,4.1,2.2H51.9 M51.9,0H4.1C1.9,0,0,1.9,0,4.1v47.6C0,54.1,1.9,56,4.1,56h47.6c2.4,0,4.1-1.9,4.1-4.1V4.1
		C56,1.9,54.1,0,51.9,0L51.9,0z"/>
</g>
<path fill="#8F8F8F" d="M47.8,16.6c-1.3,0.6-2.8,1.1-4.3,1.3c1.5-0.9,2.8-2.4,3.4-4.3c-1.5,0.9-3,1.5-4.7,1.9
	c-1.3-1.5-3.4-2.4-5.6-2.4c-4.3,0-7.5,3.4-7.5,7.5c0,0.6,0,1.1,0.2,1.7c-6.2-0.2-11.8-3.4-15.7-8c-0.9,1.1-1.3,2.4-1.3,3.9
	c0,2.6,1.3,5,3.4,6.2c-1.3,0-2.4-0.4-3.4-0.9l0,0c0,3.7,2.6,6.7,6,7.5c-0.6,0.2-1.3,0.2-1.9,0.2c-0.4,0-0.9,0-1.5-0.2
	c1.1,3.2,3.9,5.4,7.1,5.4c-2.6,2.2-5.8,3.2-9.5,3.2c-0.6,0-1.3,0-1.7,0c3.4,2.2,7.3,3.4,11.6,3.4c14,0,21.8-11.6,21.8-21.8
	c0-0.4,0-0.6,0-1.1C45.7,19.4,47,18.1,47.8,16.6L47.8,16.6z"/>
</svg>
